<?xml version="1.0" encoding="UTF-8"?> <svg xmlns="http://www.w3.org/2000/svg" width="734" height="312" viewBox="94 499 734 312"><defs><style><![CDATA[ text{fill:#444;font-family:'Open Sans',verdana,arial,sans-serif;font-size:0.75em;font-weight:400} ]]></style></defs><path fill="#F6F8F9" d="M0 0h1612.2v1101H0z"></path><g><rect width="735.994" height="384.994" x="94.997" y="461.978" fill="#FFF" rx="3" ry="3"></rect><g><g color="#767676"><path d="M133.997 729.328h572m-572-44.65h572m-572-44.65h572m-572-44.65h572m-572-44.65h572" stroke="#eee"></path><path d="M133.997 773.978h572" stroke="#444"></path><path d="M135.077 773.978v-13.39h8.6v13.39zm10.75 0v-44.65h8.61v44.65zm11.91 0v-26.79h8.61v26.79zm11.53 0v-53.58h8.6v53.58zm11.9 0v-26.79h8.61v26.79zm11.53 0v-89.3h8.6v89.3zm11.91 0v-151.81h8.6v151.81zm11.91 0v-178.6h8.6v178.6zm11.52 0v-138.41h8.6v138.41zm11.91 0v-209.85h8.6v209.85zm11.52 0v-125.02h8.61v125.02zm11.91 0v-178.6h8.61v178.6zm11.91 0v-53.58h8.61v53.58zm10.76 0v-165.2h8.6v165.2zm11.91 0v-120.55h8.6v120.55zm11.52 0v-84.83h8.6v84.83zm11.91 0v-66.97h8.6v66.97zm11.52 0v-8.93h8.61v8.93zm11.91 0v-49.11h8.61v49.11zm11.91 0v-147.34h8.61v147.34zm11.52 0v-84.83h8.61v84.83zm11.91 0v-129.48h8.61v129.48zm11.53 0v-71.44h8.6v71.44zm11.91 0v-17.86h8.6v17.86zm11.91 0v-22.32h8.6v22.32zm10.75 0v-129.48h8.61v129.48zm11.91 0v-178.6h8.61v178.6zm11.52 0v-84.83h8.61v84.83zm11.91 0v-58.04h8.61v58.04zm11.53 0v-31.25h8.6v31.25zm11.91 0v-116.09h8.6v116.09zm11.91 0v-17.86h8.6v17.86zm11.52 0v-93.76h8.6v93.76zm11.91 0v-125.02h8.6v125.02zm11.52 0v-120.55h8.61v120.55zm11.91 0v-107.16h8.61v107.16zm11.91 0v-151.81h8.61v151.81zm11.14 0v-111.62h8.61v111.62zm11.91 0v-89.3h8.6v89.3zm11.52 0v-89.3h8.61v89.3zm11.91 0v-200.92h8.61v200.92zm11.53 0v-183.06h8.6v183.06zm11.91 0v-75.9h8.6v75.9zm11.9 0v-116.09h8.61v116.09zm11.53 0v-84.83h8.6v84.83zm11.91 0v-129.48h8.6v129.48zm11.52 0v-151.81h8.61v151.81zm11.91 0v-44.65h8.61v44.65zm11.91 0v-44.65h8.6v44.65z" fill="#356aff"></path><path d="M145.827 729.328v-4.46h8.61v4.46zm58.78-107.16v-4.47h8.6v4.47zm11.91-26.79v-8.93h8.6v8.93zm11.52 40.19v-13.4h8.6v13.4zm11.91-71.44v-13.4h8.6v13.4zm11.52 84.83v-8.93h8.61v8.93zm11.91-53.58v-13.39h8.61v13.39zm11.91 125.02v-4.46h8.61v4.46zm10.76-111.62v-4.47h8.6v4.47zm11.91 44.65v-8.93h8.6v8.93zm11.52 35.72v-17.86h8.6v17.86zm11.91 17.86v-4.47h8.6v4.47zm11.52 58.04v-4.46h8.61v4.46zm23.82-138.41v-17.86h8.61v17.86zm11.52 62.51v-31.26h8.61v31.26zm11.91-44.65v-26.8h8.61v26.8zm11.53 58.04v-8.93h8.6v8.93zm23.82 49.12v-4.47h8.6v4.47zm10.75-107.16v-35.72h8.61v35.72zm11.91-49.12v-13.39h8.61v13.39zm11.52 93.77v-4.47h8.61v4.47zm11.91 26.79v-26.79h8.61v26.79zm11.53 26.79v-4.47h8.6v4.47zm11.91-84.84v-22.32h8.6v22.32zm11.91 98.23v-8.93h8.6v8.93zm11.52-75.9v-4.47h8.6v4.47zm11.91-31.26v-17.86h8.6v17.86zm11.52 4.47v-44.65h8.61v44.65zm11.91 13.39v-8.93h8.61v8.93zm11.91-44.65v-13.39h8.61v13.39zm11.14 40.19v-22.33h8.61v22.33zm35.34-89.3v-13.4h8.61v13.4zm11.53 17.86v-13.4h8.6v13.4zm11.91 107.16v-31.26h8.6v31.26zm11.9-40.19v-26.79h8.61v26.79zm11.53 31.26v-8.93h8.6v8.93zm11.91-44.65v-22.33h8.6v22.33zm11.52-22.33v-17.86h8.61v17.86zm11.91 107.16v-35.72h8.61v35.72z" fill="#e92828"></path><g text-anchor="middle"><text x="267.677" y="790.978">2018</text><text x="407.897" y="790.978">2019</text><text x="548.107" y="790.978">2020</text><text x="688.707" y="790.978">2021</text></g><g text-anchor="end"><text x="128.997" y="778.178">0</text><text x="128.997" y="733.528">10</text><text x="128.997" y="688.878">20</text><text x="128.997" y="644.228">30</text><text x="128.997" y="599.578">40</text><text x="128.997" y="554.928">50</text></g></g><g><g color="#767676"><path fill="#fff" d="M705.997 538.978h120v48h-120z"></path><text x="745.997" y="558.158">Not Security</text><path d="M731.997 559.478h-12v-12h12z" fill="#356aff"></path><g><text x="745.997" y="577.158">Security</text><path d="M731.997 578.478h-12v-12h12z" fill="#e92828"></path></g><g><text transform="rotate(-90 314.394 343.084)" x="1" y="137.5" text-anchor="middle" style="font-size:0.875em">Number of new bugs reported</text></g></g></g></g></g></svg> 